<svg xmlns="http://www.w3.org/2000/svg" viewBox="0 0 800 600" width="800" height="600">
  <rect width="800" height="600" fill="#f8f9fa"/>
  <g transform="translate(60, 60)">
    <rect width="680" height="480" rx="12" fill="#ffffff" stroke="#e5e7eb" stroke-width="2" filter="drop-shadow(0 10px 15px rgba(0,0,0,0.05))"/>
    <!-- Sidebar -->
    <rect x="0" y="0" width="160" height="480" rx="12" fill="#111827"/>
    <rect x="24" y="24" width="90" height="24" rx="4" fill="#ffffff" fill-opacity="0.9"/>
    
    <rect x="24" y="80" width="112" height="36" rx="6" fill="#ffffff" fill-opacity="0.1"/>
    <rect x="36" y="92" width="12" height="12" rx="2" fill="#ffffff"/>
    <rect x="56" y="94" width="60" height="8" rx="2" fill="#ffffff"/>
    
    <rect x="36" y="138" width="12" height="12" rx="2" fill="#ffffff" fill-opacity="0.5"/>
    <rect x="56" y="140" width="75" height="8" rx="2" fill="#ffffff" fill-opacity="0.5"/>
    
    <rect x="36" y="184" width="12" height="12" rx="2" fill="#ffffff" fill-opacity="0.5"/>
    <rect x="56" y="186" width="50" height="8" rx="2" fill="#ffffff" fill-opacity="0.5"/>
    
    <rect x="36" y="230" width="12" height="12" rx="2" fill="#ffffff" fill-opacity="0.5"/>
    <rect x="56" y="232" width="80" height="8" rx="2" fill="#ffffff" fill-opacity="0.5"/>
    
    <rect x="24" y="420" width="32" height="32" rx="16" fill="#ffffff" fill-opacity="0.2"/>
    <rect x="68" y="428" width="50" height="6" rx="2" fill="#ffffff" fill-opacity="0.8"/>
    <rect x="68" y="440" width="30" height="4" rx="2" fill="#ffffff" fill-opacity="0.4"/>
    
    <!-- Top Nav -->
    <rect x="160" y="0" width="520" height="64" fill="#ffffff"/>
    <line x1="160" y1="64" x2="680" y2="64" stroke="#f3f4f6" stroke-width="2"/>
    <rect x="184" y="24" width="160" height="16" rx="4" fill="#f3f4f6"/>
    <rect x="600" y="24" width="56" height="16" rx="8" fill="#f3f4f6"/>
    
    <!-- Dashboard Cards -->
    <rect x="184" y="88" width="150" height="90" rx="8" fill="#f9fafb" stroke="#f3f4f6" stroke-width="1"/>
    <rect x="200" y="104" width="60" height="6" rx="2" fill="#9ca3af"/>
    <rect x="200" y="120" width="80" height="24" rx="4" fill="#111827"/>
    
    <rect x="350" y="88" width="150" height="90" rx="8" fill="#f9fafb" stroke="#f3f4f6" stroke-width="1"/>
    <rect x="366" y="104" width="50" height="6" rx="2" fill="#9ca3af"/>
    <rect x="366" y="120" width="90" height="24" rx="4" fill="#111827"/>
    
    <rect x="516" y="88" width="140" height="90" rx="8" fill="#f9fafb" stroke="#f3f4f6" stroke-width="1"/>
    <rect x="532" y="104" width="70" height="6" rx="2" fill="#9ca3af"/>
    <rect x="532" y="120" width="70" height="24" rx="4" fill="#111827"/>
    
    <!-- Main Table Area -->
    <rect x="184" y="202" width="472" height="254" rx="8" fill="#ffffff" stroke="#f3f4f6" stroke-width="1"/>
    <rect x="208" y="226" width="120" height="12" rx="3" fill="#111827"/>
    <rect x="560" y="220" width="72" height="24" rx="6" fill="#111827"/>
    
    <!-- Table Headers -->
    <rect x="184" y="260" width="472" height="32" fill="#f9fafb"/>
    <rect x="208" y="272" width="60" height="8" rx="2" fill="#9ca3af"/>
    <rect x="340" y="272" width="50" height="8" rx="2" fill="#9ca3af"/>
    <rect x="470" y="272" width="40" height="8" rx="2" fill="#9ca3af"/>
    <rect x="580" y="272" width="50" height="8" rx="2" fill="#9ca3af"/>
    
    <!-- Table Row 1 -->
    <rect x="208" y="312" width="80" height="10" rx="3" fill="#111827"/>
    <rect x="208" y="330" width="110" height="6" rx="2" fill="#d1d5db"/>
    <rect x="340" y="316" width="90" height="8" rx="2" fill="#111827"/>
    <rect x="470" y="316" width="60" height="8" rx="2" fill="#6b7280"/>
    <rect x="580" y="314" width="56" height="16" rx="8" fill="#e5e7eb"/>
    <line x1="184" y1="350" x2="656" y2="350" stroke="#f3f4f6" stroke-width="1"/>
    
    <!-- Table Row 2 -->
    <rect x="208" y="372" width="100" height="10" rx="3" fill="#111827"/>
    <rect x="208" y="390" width="70" height="6" rx="2" fill="#d1d5db"/>
    <rect x="340" y="376" width="100" height="8" rx="2" fill="#111827"/>
    <rect x="470" y="376" width="40" height="8" rx="2" fill="#6b7280"/>
    <rect x="580" y="374" width="56" height="16" rx="8" fill="#e5e7eb"/>
    <line x1="184" y1="410" x2="656" y2="410" stroke="#f3f4f6" stroke-width="1"/>
    
    <!-- Table Row 3 -->
    <rect x="208" y="432" width="90" height="10" rx="3" fill="#111827"/>
    <rect x="340" y="436" width="80" height="8" rx="2" fill="#111827"/>
    <rect x="470" y="436" width="70" height="8" rx="2" fill="#6b7280"/>
    <rect x="580" y="434" width="56" height="16" rx="8" fill="#111827"/>
  </g>
</svg>
