<svg xmlns="http://www.w3.org/2000/svg" viewBox="0 0 800 600" width="800" height="600">
  <rect width="800" height="600" fill="#f8f9fa"/>
  <g transform="translate(60, 60)">
    <rect width="680" height="480" rx="12" fill="#ffffff" stroke="#e5e7eb" stroke-width="2" filter="drop-shadow(0 10px 15px rgba(0,0,0,0.05))"/>
    <!-- Header -->
    <rect x="0" y="0" width="680" height="64" fill="#ffffff" rx="12"/>
    <line x1="0" y1="64" x2="680" y2="64" stroke="#f3f4f6" stroke-width="2"/>
    <rect x="32" y="24" width="120" height="16" rx="4" fill="#111827"/>
    <rect x="520" y="26" width="40" height="12" rx="3" fill="#e5e7eb"/>
    <rect x="580" y="26" width="40" height="12" rx="3" fill="#e5e7eb"/>
    <rect x="632" y="20" width="24" height="24" rx="12" fill="#f3f4f6"/>
    <!-- Sidebar Filters -->
    <rect x="32" y="100" width="140" height="340" rx="6" fill="#f9fafb" stroke="#f3f4f6" stroke-width="1"/>
    <rect x="48" y="120" width="80" height="10" rx="3" fill="#d1d5db"/>
    <rect x="48" y="150" width="12" height="12" rx="2" fill="#e5e7eb"/>
    <rect x="68" y="152" width="60" height="8" rx="2" fill="#f3f4f6"/>
    <rect x="48" y="174" width="12" height="12" rx="2" fill="#111827"/>
    <rect x="68" y="176" width="70" height="8" rx="2" fill="#f3f4f6"/>
    <rect x="48" y="198" width="12" height="12" rx="2" fill="#e5e7eb"/>
    <rect x="68" y="200" width="50" height="8" rx="2" fill="#f3f4f6"/>
    
    <rect x="48" y="240" width="80" height="10" rx="3" fill="#d1d5db"/>
    <rect x="48" y="270" width="108" height="6" rx="2" fill="#f3f4f6"/>
    <rect x="48" y="286" width="80" height="6" rx="2" fill="#f3f4f6"/>
    <!-- Product Grid -->
    <!-- Card 1 -->
    <rect x="200" y="100" width="130" height="180" rx="6" fill="#ffffff" stroke="#f3f4f6" stroke-width="1"/>
    <rect x="200" y="100" width="130" height="120" rx="6" fill="#f3f4f6"/>
    <rect x="212" y="232" width="90" height="8" rx="2" fill="#d1d5db"/>
    <rect x="212" y="248" width="50" height="10" rx="2" fill="#111827"/>
    <circle cx="310" cy="252" r="10" fill="#f9fafb" stroke="#e5e7eb"/>
    <!-- Card 2 -->
    <rect x="350" y="100" width="130" height="180" rx="6" fill="#ffffff" stroke="#f3f4f6" stroke-width="1"/>
    <rect x="350" y="100" width="130" height="120" rx="6" fill="#f3f4f6"/>
    <rect x="362" y="232" width="100" height="8" rx="2" fill="#d1d5db"/>
    <rect x="362" y="248" width="50" height="10" rx="2" fill="#111827"/>
    <circle cx="460" cy="252" r="10" fill="#f9fafb" stroke="#e5e7eb"/>
    <!-- Card 3 -->
    <rect x="500" y="100" width="130" height="180" rx="6" fill="#ffffff" stroke="#f3f4f6" stroke-width="1"/>
    <rect x="500" y="100" width="130" height="120" rx="6" fill="#f3f4f6"/>
    <rect x="512" y="232" width="80" height="8" rx="2" fill="#d1d5db"/>
    <rect x="512" y="248" width="50" height="10" rx="2" fill="#111827"/>
    <circle cx="610" cy="252" r="10" fill="#111827"/>
    
    <!-- Card 4 -->
    <rect x="200" y="300" width="130" height="140" rx="6" fill="#ffffff" stroke="#f3f4f6" stroke-width="1"/>
    <rect x="200" y="300" width="130" height="100" rx="6" fill="#f3f4f6"/>
    <rect x="212" y="412" width="70" height="8" rx="2" fill="#d1d5db"/>
    <rect x="212" y="428" width="40" height="8" rx="2" fill="#111827"/>
    <!-- Card 5 -->
    <rect x="350" y="300" width="130" height="140" rx="6" fill="#ffffff" stroke="#f3f4f6" stroke-width="1"/>
    <rect x="350" y="300" width="130" height="100" rx="6" fill="#f3f4f6"/>
    <rect x="362" y="412" width="90" height="8" rx="2" fill="#d1d5db"/>
    <rect x="362" y="428" width="40" height="8" rx="2" fill="#111827"/>
    <!-- Card 6 -->
    <rect x="500" y="300" width="130" height="140" rx="6" fill="#ffffff" stroke="#f3f4f6" stroke-width="1"/>
    <rect x="500" y="300" width="130" height="100" rx="6" fill="#f3f4f6"/>
    <rect x="512" y="412" width="80" height="8" rx="2" fill="#d1d5db"/>
    <rect x="512" y="428" width="40" height="8" rx="2" fill="#111827"/>
  </g>
</svg>
