<svg xmlns="http://www.w3.org/2000/svg" viewBox="0 0 800 600" width="800" height="600">
  <rect width="800" height="600" fill="#f8f9fa"/>
  <g transform="translate(60, 60)">
    <rect width="680" height="480" rx="12" fill="#ffffff" stroke="#e5e7eb" stroke-width="2" filter="drop-shadow(0 10px 15px rgba(0,0,0,0.05))"/>
    <rect x="32" y="32" width="140" height="20" rx="4" fill="#111827"/>
    
    <!-- Top Stats Cards -->
    <rect x="32" y="80" width="190" height="100" rx="8" fill="#f9fafb" stroke="#f3f4f6" stroke-width="1"/>
    <rect x="52" y="100" width="80" height="8" rx="2" fill="#d1d5db"/>
    <rect x="52" y="124" width="120" height="24" rx="4" fill="#111827"/>
    <path d="M 52 160 L 62 150 L 72 155 L 82 140 L 92 145 L 102 135" fill="none" stroke="#22c55e" stroke-width="2"/>
    
    <rect x="245" y="80" width="190" height="100" rx="8" fill="#f9fafb" stroke="#f3f4f6" stroke-width="1"/>
    <rect x="265" y="100" width="100" height="8" rx="2" fill="#d1d5db"/>
    <rect x="265" y="124" width="90" height="24" rx="4" fill="#111827"/>
    <path d="M 265 160 L 275 155 L 285 158 L 295 145 L 305 150 L 315 135" fill="none" stroke="#22c55e" stroke-width="2"/>
    
    <rect x="458" y="80" width="190" height="100" rx="8" fill="#f9fafb" stroke="#f3f4f6" stroke-width="1"/>
    <rect x="478" y="100" width="90" height="8" rx="2" fill="#d1d5db"/>
    <rect x="478" y="124" width="110" height="24" rx="4" fill="#111827"/>
    
    <!-- Large Chart Area -->
    <rect x="32" y="210" width="403" height="240" rx="8" fill="#ffffff" stroke="#f3f4f6" stroke-width="1"/>
    <rect x="52" y="230" width="120" height="12" rx="3" fill="#111827"/>
    <line x1="52" y1="410" x2="415" y2="410" stroke="#f3f4f6" stroke-width="2"/>
    <line x1="52" y1="360" x2="415" y2="360" stroke="#f3f4f6" stroke-width="1" stroke-dasharray="4"/>
    <line x1="52" y1="310" x2="415" y2="310" stroke="#f3f4f6" stroke-width="1" stroke-dasharray="4"/>
    <line x1="52" y1="260" x2="415" y2="260" stroke="#f3f4f6" stroke-width="1" stroke-dasharray="4"/>
    
    <path d="M 52 410 C 100 400, 150 350, 200 360 C 250 370, 300 280, 350 290 C 380 295, 400 240, 415 250" fill="none" stroke="#111827" stroke-width="4" stroke-linecap="round"/>
    
    <path d="M 52 410 C 100 405, 150 390, 200 380 C 250 370, 300 340, 350 350 C 380 355, 400 310, 415 320" fill="none" stroke="#d1d5db" stroke-width="3" stroke-linecap="round"/>
    
    <!-- Sidebar Keywords -->
    <rect x="458" y="210" width="190" height="240" rx="8" fill="#f9fafb" stroke="#f3f4f6" stroke-width="1"/>
    <rect x="478" y="230" width="100" height="12" rx="3" fill="#111827"/>
    <!-- Keyword 1 -->
    <rect x="478" y="270" width="80" height="6" rx="2" fill="#6b7280"/>
    <rect x="478" y="286" width="150" height="6" rx="3" fill="#e5e7eb"/>
    <rect x="478" y="286" width="120" height="6" rx="3" fill="#111827"/>
    <!-- Keyword 2 -->
    <rect x="478" y="316" width="110" height="6" rx="2" fill="#6b7280"/>
    <rect x="478" y="332" width="150" height="6" rx="3" fill="#e5e7eb"/>
    <rect x="478" y="332" width="90" height="6" rx="3" fill="#111827"/>
    <!-- Keyword 3 -->
    <rect x="478" y="362" width="70" height="6" rx="2" fill="#6b7280"/>
    <rect x="478" y="378" width="150" height="6" rx="3" fill="#e5e7eb"/>
    <rect x="478" y="378" width="105" height="6" rx="3" fill="#111827"/>
    <!-- Keyword 4 -->
    <rect x="478" y="408" width="95" height="6" rx="2" fill="#6b7280"/>
    <rect x="478" y="424" width="150" height="6" rx="3" fill="#e5e7eb"/>
    <rect x="478" y="424" width="60" height="6" rx="3" fill="#111827"/>
  </g>
</svg>
