<svg xmlns="http://www.w3.org/2000/svg" viewBox="0 0 800 600" width="800" height="600">
  <rect width="800" height="600" fill="#f8f9fa"/>
  <g transform="translate(60, 60)">
    <rect width="680" height="480" rx="12" fill="#ffffff" stroke="#e5e7eb" stroke-width="2" filter="drop-shadow(0 10px 15px rgba(0,0,0,0.05))"/>
    
    <!-- Top Bar -->
    <rect x="24" y="24" width="180" height="24" rx="4" fill="#111827"/>
    <rect x="520" y="24" width="136" height="32" rx="16" fill="#f3f4f6"/>
    <circle cx="536" cy="40" r="8" fill="#d1d5db"/>
    <rect x="552" y="36" width="40" height="8" rx="2" fill="#6b7280"/>
    <circle cx="610" cy="40" r="12" fill="#111827"/>
    
    <!-- Left Sidebar: Campaigns -->
    <rect x="24" y="80" width="160" height="376" rx="8" fill="#f9fafb" stroke="#f3f4f6" stroke-width="1"/>
    <rect x="40" y="104" width="100" height="12" rx="3" fill="#111827"/>
    
    <rect x="40" y="140" width="16" height="16" rx="4" fill="#d1d5db"/>
    <rect x="68" y="144" width="90" height="8" rx="2" fill="#6b7280"/>
    
    <rect x="40" y="176" width="16" height="16" rx="4" fill="#111827"/>
    <rect x="68" y="180" width="100" height="8" rx="2" fill="#111827"/>
    <rect x="40" y="196" width="128" height="2" rx="1" fill="#e5e7eb"/>
    <rect x="68" y="206" width="80" height="6" rx="2" fill="#9ca3af"/>
    
    <rect x="40" y="232" width="16" height="16" rx="4" fill="#d1d5db"/>
    <rect x="68" y="236" width="85" height="8" rx="2" fill="#6b7280"/>
    
    <!-- Calendar Grid -->
    <rect x="208" y="80" width="448" height="376" rx="8" fill="#ffffff" stroke="#f3f4f6" stroke-width="1"/>
    
    <!-- Days Row -->
    <rect x="208" y="80" width="448" height="40" fill="#f9fafb" rx="8"/>
    <rect x="230" y="96" width="24" height="6" rx="2" fill="#d1d5db"/>
    <rect x="294" y="96" width="24" height="6" rx="2" fill="#d1d5db"/>
    <rect x="358" y="96" width="24" height="6" rx="2" fill="#d1d5db"/>
    <rect x="422" y="96" width="24" height="6" rx="2" fill="#d1d5db"/>
    <rect x="486" y="96" width="24" height="6" rx="2" fill="#d1d5db"/>
    <rect x="550" y="96" width="24" height="6" rx="2" fill="#d1d5db"/>
    <rect x="614" y="96" width="24" height="6" rx="2" fill="#d1d5db"/>
    
    <line x1="208" y1="120" x2="656" y2="120" stroke="#f3f4f6" stroke-width="1"/>
    <!-- Grid Lines -->
    <line x1="272" y1="80" x2="272" y2="456" stroke="#f3f4f6" stroke-width="1"/>
    <line x1="336" y1="80" x2="336" y2="456" stroke="#f3f4f6" stroke-width="1"/>
    <line x1="400" y1="80" x2="400" y2="456" stroke="#f3f4f6" stroke-width="1"/>
    <line x1="464" y1="80" x2="464" y2="456" stroke="#f3f4f6" stroke-width="1"/>
    <line x1="528" y1="80" x2="528" y2="456" stroke="#f3f4f6" stroke-width="1"/>
    <line x1="592" y1="80" x2="592" y2="456" stroke="#f3f4f6" stroke-width="1"/>
    
    <line x1="208" y1="204" x2="656" y2="204" stroke="#f3f4f6" stroke-width="1"/>
    <line x1="208" y1="288" x2="656" y2="288" stroke="#f3f4f6" stroke-width="1"/>
    <line x1="208" y1="372" x2="656" y2="372" stroke="#f3f4f6" stroke-width="1"/>
    
    <!-- Post Items -->
    <!-- Content 1 -->
    <rect x="216" y="130" width="48" height="64" rx="6" fill="#f3f4f6" stroke="#e5e7eb" stroke-width="1"/>
    <rect x="222" y="136" width="36" height="36" rx="4" fill="#d1d5db"/>
    <rect x="222" y="178" width="24" height="4" rx="2" fill="#9ca3af"/>
    <!-- Content 2 -->
    <rect x="408" y="130" width="48" height="64" rx="6" fill="#ffffff" stroke="#111827" stroke-width="2"/>
    <rect x="414" y="136" width="36" height="36" rx="4" fill="#111827"/>
    <rect x="414" y="178" width="30" height="4" rx="2" fill="#111827"/>
    <!-- Content 3 -->
    <rect x="600" y="214" width="48" height="64" rx="6" fill="#f3f4f6" stroke="#e5e7eb" stroke-width="1"/>
    <rect x="606" y="220" width="36" height="36" rx="4" fill="#e5e7eb"/>
    <rect x="606" y="262" width="20" height="4" rx="2" fill="#9ca3af"/>
    <!-- Content 4 -->
    <rect x="344" y="298" width="48" height="64" rx="6" fill="#f3f4f6" stroke="#e5e7eb" stroke-width="1"/>
    <rect x="350" y="304" width="36" height="36" rx="4" fill="#d1d5db"/>
    <!-- Content 5 -->
    <rect x="280" y="382" width="48" height="64" rx="6" fill="#f3f4f6" stroke="#e5e7eb" stroke-width="1"/>
    <rect x="286" y="388" width="36" height="36" rx="4" fill="#d1d5db"/>
  </g>
</svg>
